<svg xmlns="http://www.w3.org/2000/svg" viewBox="0 0 100 100" fill="none" color="#3d9e93">
  
  <circle cx="50" cy="50" r="46.5" stroke="currentColor" stroke-width="2.6"></circle>

  
  <g transform="translate(30 33) rotate(-18)" fill="currentColor">
    <path d="M 0 -11 C 1.6 -4 4 -3 10 -3.4 C 5 1 3.8 4 7 11 C 1 6.5 -1 6.5 -7 11 C -3.8 4 -5 1 -10 -3.4 C -4 -3 -1.6 -4 0 -11 Z"></path>
  </g>

  
  <g transform="translate(68 30)" fill="currentColor">
    
    <path d="M -1.1 0 Q -2 8 -3.6 16 L 0 16 L 1.6 16 Q 1 8 1.1 0 Z"></path>
    
    <ellipse cx="0" cy="-2" rx="8.5" ry="2.3"></ellipse>
    <ellipse cx="0" cy="-2" rx="8.5" ry="2.3" transform="rotate(45)"></ellipse>
    <ellipse cx="0" cy="-2" rx="8.5" ry="2.3" transform="rotate(-45)"></ellipse>
    <ellipse cx="0" cy="-2" rx="8.5" ry="2.3" transform="rotate(90)"></ellipse>
    <ellipse cx="0" cy="-2" rx="8.5" ry="2.3" transform="rotate(-90)"></ellipse>
    <ellipse cx="0" cy="-2" rx="8.5" ry="2.3" transform="rotate(135)"></ellipse>
    
    <path d="M -17 16 Q -8 13 0 14 Q 10 15 17 17 L 17 19 L -17 19 Z"></path>
  </g>

  
  <g stroke="currentColor" stroke-width="2.6" stroke-linecap="round">
    <path d="M 13 62 Q 25 56 37 62 Q 49 68 61 62 Q 73 56 87 62"></path>
    <path d="M 16 70 Q 28 64 40 70 Q 52 76 64 70 Q 76 64 84 70"></path>
    <path d="M 20 78 Q 32 73 44 78 Q 56 83 68 78 Q 76 74 81 78"></path>
  </g>
</svg>